<svg xmlns="http://www.w3.org/2000/svg" width="200" height="200" style="transform:translate3d(0,0,0);content-visibility:visible" viewBox="0 0 430 430"><defs><mask id="V"><path fill="#fff" d="M0 0h430v430H0z"/><path/></mask><mask id="T" mask-type="alpha"><g filter="url(#a)"><path fill="#fff" d="M0 0h430v430H0z" opacity="0"/><use xmlns:ns1="http://www.w3.org/1999/xlink" ns1:href="#b"/></g></mask><mask id="R" mask-type="alpha"><g filter="url(#c)"><path fill="#fff" d="M0 0h430v430H0z" opacity="0"/><use xmlns:ns2="http://www.w3.org/1999/xlink" ns2:href="#d"/></g></mask><mask id="Q" mask-type="alpha"><g filter="url(#e)"><path fill="#fff" d="M0 0h430v430H0z" opacity="0"/><use xmlns:ns3="http://www.w3.org/1999/xlink" ns3:href="#f"/></g></mask><mask id="P" mask-type="alpha"><g filter="url(#g)"><path fill="#fff" d="M0 0h430v430H0z" opacity="0"/><use xmlns:ns4="http://www.w3.org/1999/xlink" ns4:href="#h"/></g></mask><mask id="N" mask-type="alpha"><g filter="url(#i)"><path fill="#fff" d="M0 0h430v430H0z" opacity="0"/><use xmlns:ns5="http://www.w3.org/1999/xlink" ns5:href="#j"/></g></mask><mask id="M" mask-type="alpha"><g filter="url(#k)"><path fill="#fff" d="M0 0h430v430H0z" opacity="0"/><use xmlns:ns6="http://www.w3.org/1999/xlink" ns6:href="#l"/></g></mask><mask id="L" mask-type="alpha"><g filter="url(#m)"><path fill="#fff" d="M0 0h430v430H0z" opacity="0"/><use xmlns:ns7="http://www.w3.org/1999/xlink" ns7:href="#n"/></g></mask><mask id="I" mask-type="alpha"><g filter="url(#o)"><path fill="#fff" d="M0 0h430v430H0z" opacity="0"/><use xmlns:ns8="http://www.w3.org/1999/xlink" ns8:href="#p"/></g></mask><mask id="H" mask-type="alpha"><g filter="url(#q)"><path fill="#fff" d="M0 0h430v430H0z" opacity="0"/><use xmlns:ns9="http://www.w3.org/1999/xlink" ns9:href="#r"/></g></mask><mask id="G" mask-type="alpha"><g filter="url(#s)"><path fill="#fff" d="M0 0h430v430H0z" opacity="0"/><use xmlns:ns10="http://www.w3.org/1999/xlink" ns10:href="#t"/></g></mask><mask id="D" mask-type="alpha"><use xmlns:ns11="http://www.w3.org/1999/xlink" ns11:href="#u"/></mask><mask id="C" mask-type="alpha"><use xmlns:ns12="http://www.w3.org/1999/xlink" ns12:href="#v"/></mask><mask id="B" mask-type="alpha"><use xmlns:ns13="http://www.w3.org/1999/xlink" ns13:href="#w"/></mask><mask id="A" mask-type="alpha"><use xmlns:ns14="http://www.w3.org/1999/xlink" ns14:href="#x"/></mask><path id="b" style="display:none"/><path id="d" style="display:none"/><path id="f" style="display:none"/><path id="h" style="display:none"/><path id="j" style="display:none"/><path id="l" style="display:none"/><path id="n" style="display:none"/><path id="p" style="display:none"/><path id="r" style="display:none"/><path id="t" style="display:none"/><path id="v" style="display:none"/><path id="u" style="display:none"/><path id="w" style="display:none"/><filter id="a" width="100%" height="100%" x="0%" y="0%" filterUnits="objectBoundingBox"><feComponentTransfer in="SourceGraphic"><feFuncA tableValues="1.0 0.0" type="table"/></feComponentTransfer></filter><filter id="c" width="100%" height="100%" x="0%" y="0%" filterUnits="objectBoundingBox"><feComponentTransfer in="SourceGraphic"><feFuncA tableValues="1.0 0.0" type="table"/></feComponentTransfer></filter><filter id="e" width="100%" height="100%" x="0%" y="0%" filterUnits="objectBoundingBox"><feComponentTransfer in="SourceGraphic"><feFuncA tableValues="1.0 0.0" type="table"/></feComponentTransfer></filter><filter id="g" width="100%" height="100%" x="0%" y="0%" filterUnits="objectBoundingBox"><feComponentTransfer in="SourceGraphic"><feFuncA tableValues="1.0 0.0" type="table"/></feComponentTransfer></filter><filter id="i" width="100%" height="100%" x="0%" y="0%" filterUnits="objectBoundingBox"><feComponentTransfer in="SourceGraphic"><feFuncA tableValues="1.0 0.0" type="table"/></feComponentTransfer></filter><filter id="k" width="100%" height="100%" x="0%" y="0%" filterUnits="objectBoundingBox"><feComponentTransfer in="SourceGraphic"><feFuncA tableValues="1.0 0.0" type="table"/></feComponentTransfer></filter><filter id="m" width="100%" height="100%" x="0%" y="0%" filterUnits="objectBoundingBox"><feComponentTransfer in="SourceGraphic"><feFuncA tableValues="1.0 0.0" type="table"/></feComponentTransfer></filter><filter id="o" width="100%" height="100%" x="0%" y="0%" filterUnits="objectBoundingBox"><feComponentTransfer in="SourceGraphic"><feFuncA tableValues="1.0 0.0" type="table"/></feComponentTransfer></filter><filter id="q" width="100%" height="100%" x="0%" y="0%" filterUnits="objectBoundingBox"><feComponentTransfer in="SourceGraphic"><feFuncA tableValues="1.0 0.0" type="table"/></feComponentTransfer></filter><filter id="s" width="100%" height="100%" x="0%" y="0%" filterUnits="objectBoundingBox"><feComponentTransfer in="SourceGraphic"><feFuncA tableValues="1.0 0.0" type="table"/></feComponentTransfer></filter><clipPath id="y"><path d="M0 0h430v430H0z"/></clipPath><clipPath id="U"><path d="M0 0h430v430H0z"/></clipPath><clipPath id="S"><path d="M0 0h430v430H0z"/></clipPath><clipPath id="J"><path d="M0 0h430v430H0z"/></clipPath><clipPath id="O"><path d="M0 0h430v430H0z"/></clipPath><clipPath id="K"><path d="M0 0h430v430H0z"/></clipPath><clipPath id="E"><path d="M0 0h430v430H0z"/></clipPath><clipPath id="F"><path d="M0 0h430v430H0z"/></clipPath><clipPath id="z"><path d="M0 0h430v430H0z"/></clipPath><g id="x" style="display:none"><path/><path style="mix-blend-mode:multiply"/></g></defs><g clip-path="url(#y)"><g clip-path="url(#z)" style="display:block"><path fill="#F8C8C0" d="M71.2-107.45v83.7l.1 85.1c0 1.4-.8 2.5-2.1 2.9l-139.5 43.2c-.2.1-.5.1-.8.1l-.1-111.2-.1-65.9 12.6-3.4 129.9-34.6v.1z" class="primary" style="display:block" transform="translate(287 283.092)"/><g fill="#F8C8C0" style="display:block"><path d="M215.1 390.542c.2.1.5.1.7.1l-.1-111.2-.1-65.9-143.7-37.2v.1l.4 82.2.7 86.8v1.1c0 .1.1.1.1.2v.1c.1.1.1.2.2.3.1 0 .1.1.1.1l.1.2.1.1.1.1c.1.1.2.1.3.2.1.1.3.1.4.2 0 0 .1.1.2.1s.1.1.2.1l140.2 42.3h.1z" class="primary"/><path d="M71.25 107.05c.2.1.5.1.7.1l-.1-111.2-.1-65.9-143.7-37.2v.1l.4 82.2.7 86.8v1.1c0 .1.1.1.1.2v.1c.1.1.1.2.2.3.1 0 .1.1.1.1l.1.2.1.1.1.1c.1.1.2.1.3.2.1.1.3.1.4.2 0 0 .1.1.2.1s.1.1.2.1l140.2 42.3h.1z" class="primary" style="mix-blend-mode:multiply" transform="translate(143.85 283.492)"/></g><path fill="#F8C8C0" d="m165.15-2.25.4-39.6c0-.1 0-.2-.1-.3-.1-.7-.4-1.2-.8-1.7L-.05-1.35l-164.6-42.5c-.5.5-.9 1.2-.9 2l.4 40.5c.1 1.4 1 2.6 2.3 2.9l19.8 5.1L.75 43.85l142.5-37.9 19.7-5.3c1.2-.3 2.1-1.4 2.2-2.6v-.3z" class="primary" style="display:block" transform="translate(214.95 169.792)"/><path fill="#F8C8C0" d="M163.4-.613c.5.1.9.401 1.3.801L-.1 42.688-164.7.188c.3-.4.8-.701 1.3-.801l162.7-42c.5-.1 1-.1 1.5 0l162.6 42z" class="primary" style="display:block" transform="translate(215 125.754)"/><g opacity=".3" style="mix-blend-mode:multiply;display:block"><path fill="#F8C8C0" d="m215 168.442 164.7-42.5c.4.4.7 1 .7 1.7l-.4 39.9v.3c-.1 1.2-1 2.3-2.2 2.6l-19.7 5.2-130 34.5-12.6 3.4-143.7-37.1-19.8-5.1c-1.3-.4-2.2-1.5-2.2-2.9l-.4-40.5c.1-.8.4-1.5.9-2l164.7 42.5z" class="primary" opacity="1"/></g><g opacity=".5" style="mix-blend-mode:multiply;display:block"><path fill="#F8C8C0" d="m71.9 176.442 143.7 37.1-.7-45.1-164.6-42.5c-.5.5-.9 1.2-.9 2l.4 40.5c.1 1.4 1 2.6 2.3 2.9l19.8 5.1z" class="primary" opacity="1"/></g><path fill="none" stroke="#92130B" stroke-linecap="round" stroke-linejoin="round" stroke-width="7" d="m-87.742 169.722.262-100.188.206-92.284-14.863-4.25.137-47L0-107.304m87.588 277.026-.347-106.217-.244-87.255 14.866-4.75L102-74 0-107.196" class="secondary" style="display:block" transform="matrix(.9 0 0 .9 215 215)"/><g style="display:none"><path class="primary"/><path class="primary" style="mix-blend-mode:multiply"/><path class="primary" style="mix-blend-mode:multiply"/></g><path class="primary" style="display:none"/><g style="display:none"><path class="primary"/><path class="primary" style="mix-blend-mode:multiply"/></g><g mask="url(#A)" style="display:none"><path fill="none" class="secondary"/></g><path class="primary" style="display:none"/><g mask="url(#B)" style="display:none"><path fill="none" class="secondary"/></g><g style="display:none"><path class="primary"/><path class="primary" style="mix-blend-mode:multiply"/></g><path class="primary" style="mix-blend-mode:multiply;display:none"/><g mask="url(#C)" style="display:none"><path fill="none" class="secondary"/></g><g mask="url(#D)" style="display:none"><path fill="none" class="secondary"/></g><path fill="none" stroke="#92130B" stroke-linecap="round" stroke-width="7" d="M1.479-105.144C-236-138.013-48.646-304.002 3.944-102.679" class="secondary" style="display:block" transform="matrix(.9 0 0 .9 214.1 211.4)"/><path fill="none" stroke="#92130B" stroke-linecap="round" stroke-width="7" d="M4.416-105.144c234.526-32.869 49.502-198.858-2.434 2.465" class="secondary" style="display:block" transform="matrix(.9 0 0 .9 213.75 211.4)"/><path fill="none" class="secondary" style="display:none"/><path fill="none" class="secondary" style="display:none"/><path fill="none" class="secondary" style="display:none"/><path fill="none" class="secondary" style="display:none"/></g><g clip-path="url(#E)" style="display:none"><g clip-path="url(#F)" style="display:none"><g style="display:none"><path class="primary"/><path class="primary" style="mix-blend-mode:multiply"/></g><path class="primary" style="display:none"/><g style="display:none"><path class="primary"/><path class="primary" style="mix-blend-mode:multiply"/></g><path class="primary" style="display:none"/><g style="display:none"><path class="primary"/><path class="primary" style="mix-blend-mode:multiply"/><path class="primary" style="mix-blend-mode:multiply"/></g><g style="display:none"><path class="primary"/><path class="primary" style="mix-blend-mode:multiply"/><path class="primary" style="mix-blend-mode:multiply"/></g><g mask="url(#G)" style="display:none"><path fill="none" class="secondary"/></g><g mask="url(#H)" style="display:none"><path fill="none" class="secondary"/></g><g mask="url(#I)" style="display:none"><path fill="none" class="secondary"/></g></g><path fill="none" class="secondary" style="display:none"/><path fill="none" class="secondary" style="display:none"/></g><g clip-path="url(#J)" style="display:none"><g clip-path="url(#K)" style="display:none"><g style="display:none"><path class="primary"/><path class="primary" style="mix-blend-mode:multiply"/></g><path class="primary" style="display:none"/><g style="display:none"><path class="primary"/><path class="primary" style="mix-blend-mode:multiply"/></g><path class="primary" style="display:none"/><g style="display:none"><path class="primary"/><path class="primary" style="mix-blend-mode:multiply"/><path class="primary" style="mix-blend-mode:multiply"/></g><g style="display:none"><path class="primary"/><path class="primary" style="mix-blend-mode:multiply"/><path class="primary" style="mix-blend-mode:multiply"/></g><g mask="url(#L)" style="display:none"><path fill="none" class="secondary"/></g><g mask="url(#M)" style="display:none"><path fill="none" class="secondary"/></g><g mask="url(#N)" style="display:none"><path fill="none" class="secondary"/></g></g><g clip-path="url(#O)" style="display:none"><g style="display:none"><path class="primary"/><path class="primary" style="mix-blend-mode:multiply"/></g><path class="primary" style="display:none"/><g style="display:none"><path class="primary"/><path class="primary" style="mix-blend-mode:multiply"/></g><path class="primary" style="display:none"/><g style="display:none"><path class="primary"/><path class="primary" style="mix-blend-mode:multiply"/><path class="primary" style="mix-blend-mode:multiply"/></g><g style="display:none"><path class="primary"/><path class="primary" style="mix-blend-mode:multiply"/><path class="primary" style="mix-blend-mode:multiply"/></g><g mask="url(#P)" style="display:none"><path fill="none" class="secondary"/></g><g mask="url(#Q)" style="display:none"><path fill="none" class="secondary"/></g><g mask="url(#R)" style="display:none"><path fill="none" class="secondary"/></g></g><path fill="none" class="secondary" style="display:none"/><path fill="none" class="secondary" style="display:none"/></g><g clip-path="url(#S)" style="display:none"><path class="primary" style="display:none"/><g style="display:none"><path class="primary"/><path class="primary" style="mix-blend-mode:multiply"/></g><path class="primary" style="display:none"/><path class="primary" style="display:none"/><path class="primary" style="mix-blend-mode:multiply;display:none"/><path class="primary" style="mix-blend-mode:multiply;display:none"/><g mask="url(#T)" style="display:none"><path fill="none" class="secondary"/></g><path fill="none" class="secondary" style="display:none"/><path fill="none" class="secondary" style="display:none"/></g><g clip-path="url(#U)" style="display:none"><path class="primary" style="display:none"/><g style="display:none"><path class="primary"/><path class="primary" style="mix-blend-mode:multiply"/></g><path class="primary" style="display:none"/><path class="primary" style="display:none"/><path class="primary" style="mix-blend-mode:multiply;display:none"/><path class="primary" style="mix-blend-mode:multiply;display:none"/><g mask="url(#V)" style="display:none"><path fill="none" class="secondary"/></g><path fill="none" class="secondary" style="display:none"/><path fill="none" class="secondary" style="display:none"/></g></g></svg>